<svg width="64" height="65" viewBox="0 0 64 65" fill="none" xmlns="http://www.w3.org/2000/svg">
<g clip-path="url(#clip0_52_19)">
<path d="M32.2047 8.24365H32.5607C35.8484 8.25565 52.5067 8.37564 56.9983 9.58352C58.3561 9.95216 59.5935 10.6707 60.5866 11.6673C61.5797 12.664 62.2939 13.9038 62.6578 15.263C63.0617 16.7828 63.3457 18.7946 63.5377 20.8704L63.5777 21.2864L63.6657 22.3263L63.6976 22.7422C63.9576 26.3979 63.9896 29.8215 63.9936 30.5695V30.8694C63.9896 31.6454 63.9536 35.301 63.6657 39.1086L63.6337 39.5286L63.5977 39.9445C63.3977 42.2323 63.1017 44.5041 62.6578 46.1759C62.295 47.5356 61.5812 48.776 60.5879 49.7728C59.5946 50.7697 58.3567 51.4878 56.9983 51.8554C52.3588 53.1032 34.7245 53.1912 32.2807 53.1952H31.7128C30.4769 53.1952 25.3654 53.1712 20.0059 52.9873L19.326 52.9633L18.978 52.9473L18.2941 52.9193L17.6102 52.8913C13.1706 52.6953 8.94303 52.3793 6.99522 51.8514C5.63731 51.4842 4.39973 50.7666 3.40647 49.7705C2.4132 48.7745 1.69913 47.5349 1.33578 46.1759C0.891819 44.5081 0.595848 42.2323 0.395868 39.9445L0.363871 39.5246L0.331874 39.1086C0.134484 36.3985 0.0251036 33.6827 0.00390625 30.9654L0.00390625 30.4735C0.0119055 29.6136 0.0439023 26.6418 0.259881 23.3622L0.287878 22.9502L0.299877 22.7422L0.331874 22.3263L0.419865 21.2864L0.459861 20.8704C0.651843 18.7946 0.935815 16.7788 1.33977 15.263C1.70251 13.9033 2.41632 12.6629 3.40962 11.666C4.40293 10.6692 5.64083 9.95105 6.99922 9.58352C8.94703 9.06357 13.1746 8.7436 17.6142 8.54362L18.2941 8.51563L18.982 8.49163L19.326 8.47963L20.0099 8.45163C23.8164 8.32914 27.6244 8.26114 31.4328 8.24765H32.2047V8.24365ZM25.6014 21.0824V40.3525L42.2278 30.7214L25.6014 21.0824Z" fill="white"/>
</g>
<defs>
<clipPath id="clip0_52_19">
<rect width="63.9937" height="63.9937" fill="white" transform="translate(0.00390625 0.248535)"/>
</clipPath>
</defs>
</svg>
