<svg width="27" height="27" viewBox="0 0 27 27" fill="none" xmlns="http://www.w3.org/2000/svg">
<path d="M13.0071 1.62598C10.6362 1.62877 8.36326 2.57184 6.68679 4.24831C5.01033 5.92478 4.06726 8.19775 4.06446 10.5686C4.06162 12.5061 4.6945 14.391 5.866 15.9342C5.866 15.9342 6.10989 16.2553 6.14973 16.3017L13.0071 24.3891L19.8678 16.2976C19.9035 16.2545 20.1482 15.9342 20.1482 15.9342L20.149 15.9318C21.32 14.3893 21.9526 12.5052 21.9498 10.5686C21.947 8.19775 21.0039 5.92478 19.3274 4.24831C17.651 2.57184 15.378 1.62877 13.0071 1.62598V1.62598ZM13.0071 13.8205C12.364 13.8205 11.7352 13.6298 11.2005 13.2725C10.6657 12.9151 10.2489 12.4073 10.0028 11.8131C9.75665 11.2189 9.69225 10.565 9.81773 9.93422C9.9432 9.30342 10.2529 8.72399 10.7077 8.26921C11.1625 7.81443 11.7419 7.50471 12.3727 7.37924C13.0035 7.25377 13.6574 7.31816 14.2516 7.56429C14.8458 7.81042 15.3536 8.22722 15.711 8.76199C16.0683 9.29675 16.259 9.92547 16.259 10.5686C16.2579 11.4308 15.915 12.2573 15.3054 12.8669C14.6957 13.4765 13.8692 13.8194 13.0071 13.8205V13.8205Z" fill="white"/>
</svg>
