<svg width="162" height="48" viewBox="0 0 162 48" fill="none" xmlns="http://www.w3.org/2000/svg">
<g clip-path="url(#clip0_52_30)">
<path d="M154 0.5H8C3.85786 0.5 0.5 3.85786 0.5 8V40C0.5 44.1421 3.85786 47.5 8 47.5H154C158.142 47.5 161.5 44.1421 161.5 40V8C161.5 3.85786 158.142 0.5 154 0.5Z" fill="#121214"/>
<path d="M29.7216 24.3608C29.7345 23.3592 30.0005 22.3771 30.495 21.506C30.9894 20.6348 31.6962 19.9029 32.5495 19.3783C32.0074 18.6041 31.2922 17.967 30.4609 17.5175C29.6295 17.0681 28.7047 16.8187 27.7601 16.7891C25.745 16.5776 23.7914 17.9949 22.7646 17.9949C21.7179 17.9949 20.1369 16.8101 18.4344 16.8451C17.3332 16.8807 16.26 17.2009 15.3193 17.7746C14.3787 18.3483 13.6027 19.1558 13.0669 20.1186C10.7461 24.1367 12.4772 30.0419 14.7003 33.2899C15.8126 34.8803 17.1125 36.6568 18.8135 36.5938C20.478 36.5248 21.0996 35.5324 23.1088 35.5324C25.0993 35.5324 25.6825 36.5938 27.418 36.5538C29.204 36.5248 30.3293 34.9563 31.4026 33.3508C32.2018 32.2176 32.8167 30.9651 33.2247 29.6398C32.187 29.2009 31.3015 28.4663 30.6786 27.5275C30.0556 26.5888 29.7228 25.4874 29.7216 24.3608Z" fill="white"/>
<path d="M26.4447 14.6531C27.4185 13.484 27.8983 11.9814 27.7821 10.4644C26.2943 10.6206 24.92 11.3317 23.933 12.4559C23.4505 13.0051 23.0809 13.644 22.8454 14.3361C22.6099 15.0283 22.5131 15.76 22.5606 16.4896C23.3047 16.4972 24.0409 16.3359 24.7137 16.0178C25.3865 15.6997 25.9784 15.2331 26.4447 14.6531Z" fill="white"/>
<path d="M50.7625 32.5677H45.0824L43.7184 36.5954H41.3125L46.6926 21.6938H49.1922L54.5723 36.5954H52.1254L50.7625 32.5677ZM45.6707 30.7091H50.1731L47.9536 24.1724H47.8915L45.6707 30.7091Z" fill="white"/>
<path d="M66.191 31.1637C66.191 34.5399 64.384 36.709 61.6571 36.709C60.9663 36.7452 60.2793 36.586 59.6747 36.2499C59.0702 35.9137 58.5725 35.4141 58.2387 34.8082H58.1871V40.1895H55.957V25.7309H58.1156V27.5379H58.1567C58.5058 26.935 59.0119 26.438 59.621 26.0997C60.2302 25.7615 60.9197 25.5948 61.616 25.6172C64.3734 25.6172 66.191 27.7969 66.191 31.1637ZM63.8988 31.1637C63.8988 28.9641 62.7621 27.518 61.0277 27.518C59.3238 27.518 58.1778 28.9946 58.1778 31.1637C58.1778 33.3528 59.3238 34.8188 61.0277 34.8188C62.7621 34.8188 63.8988 33.3833 63.8988 31.1637Z" fill="white"/>
<path d="M78.15 31.1637C78.15 34.5399 76.343 36.709 73.616 36.709C72.9252 36.7452 72.2382 36.586 71.6337 36.2499C71.0291 35.9137 70.5315 35.4141 70.1977 34.8082H70.1461V40.1895H67.916V25.7309H70.0746V27.5379H70.1156C70.4647 26.935 70.9708 26.4379 71.58 26.0997C72.1891 25.7615 72.8786 25.5948 73.575 25.6172C76.3324 25.6172 78.15 27.7969 78.15 31.1637ZM75.8578 31.1637C75.8578 28.9641 74.7211 27.518 72.9867 27.518C71.2828 27.518 70.1367 28.9946 70.1367 31.1637C70.1367 33.3528 71.2828 34.8188 72.9867 34.8188C74.7211 34.8188 75.8578 33.3833 75.8578 31.1637Z" fill="white"/>
<path d="M86.0523 32.4434C86.2175 33.9212 87.6531 34.8914 89.6148 34.8914C91.4945 34.8914 92.8468 33.9211 92.8468 32.5887C92.8468 31.432 92.0312 30.7395 90.1 30.2649L88.1687 29.7996C85.4324 29.1387 84.1621 27.859 84.1621 25.7824C84.1621 23.2113 86.4027 21.4453 89.5843 21.4453C92.7331 21.4453 94.8918 23.2113 94.9644 25.7824H92.7132C92.5785 24.2953 91.3492 23.3977 89.5527 23.3977C87.7562 23.3977 86.5269 24.3059 86.5269 25.6277C86.5269 26.6813 87.312 27.3012 89.2327 27.7757L90.8745 28.1789C93.932 28.9019 95.2023 30.1301 95.2023 32.3097C95.2023 35.0976 92.9816 36.8437 89.4495 36.8437C86.1448 36.8437 83.9136 35.1386 83.7695 32.4433L86.0523 32.4434Z" fill="white"/>
<path d="M100.015 23.1597V25.7308H102.081V27.4968H100.015V33.4863C100.015 34.4167 100.429 34.8503 101.337 34.8503C101.583 34.8461 101.827 34.8288 102.071 34.7987V36.5542C101.663 36.6305 101.247 36.6651 100.832 36.6573C98.6328 36.6573 97.7749 35.8312 97.7749 33.7241V27.4968H96.1953V25.7308H97.7749V23.1597H100.015Z" fill="white"/>
<path d="M103.277 31.1636C103.277 27.7453 105.29 25.5972 108.43 25.5972C111.58 25.5972 113.584 27.7452 113.584 31.1636C113.584 34.5914 111.59 36.73 108.43 36.73C105.27 36.73 103.277 34.5913 103.277 31.1636ZM111.311 31.1636C111.311 28.8187 110.237 27.4347 108.43 27.4347C106.623 27.4347 105.549 28.8292 105.549 31.1636C105.549 33.5179 106.623 34.8914 108.43 34.8914C110.237 34.8914 111.311 33.5179 111.311 31.1636Z" fill="white"/>
<path d="M115.424 25.7308H117.551V27.58H117.603C117.747 27.0025 118.085 26.4921 118.561 26.1346C119.037 25.7771 119.621 25.5944 120.216 25.6171C120.473 25.6162 120.729 25.6441 120.98 25.7003V27.7863C120.656 27.6871 120.317 27.6416 119.978 27.6515C119.654 27.6384 119.331 27.6955 119.031 27.8189C118.731 27.9424 118.462 28.1293 118.241 28.3668C118.02 28.6042 117.854 28.8867 117.752 29.1947C117.651 29.5027 117.617 29.8289 117.654 30.1511V36.5952H115.424V25.7308Z" fill="white"/>
<path d="M131.261 33.4042C130.961 35.3765 129.04 36.73 126.583 36.73C123.422 36.73 121.461 34.6124 121.461 31.2152C121.461 27.8074 123.433 25.5972 126.489 25.5972C129.495 25.5972 131.385 27.6621 131.385 30.9562V31.7203H123.712V31.855C123.676 32.2549 123.727 32.6577 123.859 33.0367C123.991 33.4157 124.202 33.7622 124.479 34.0533C124.755 34.3443 125.09 34.5732 125.462 34.7248C125.834 34.8764 126.233 34.9471 126.635 34.9324C127.162 34.9817 127.69 34.8597 128.142 34.5844C128.594 34.309 128.946 33.8951 129.144 33.4042H131.261ZM123.722 30.1617H129.154C129.174 29.8021 129.12 29.4424 128.994 29.1049C128.868 28.7675 128.674 28.4596 128.424 28.2007C128.174 27.9418 127.873 27.7374 127.54 27.6003C127.207 27.4633 126.849 27.3965 126.489 27.4042C126.126 27.4021 125.766 27.4719 125.43 27.6095C125.094 27.7472 124.789 27.9501 124.531 28.2065C124.274 28.4628 124.07 28.7676 123.931 29.1032C123.792 29.4388 123.721 29.7985 123.722 30.1617Z" fill="white"/>
<path d="M45.391 10.4774C45.8585 10.4438 46.3277 10.5144 46.7646 10.6842C47.2015 10.8539 47.5954 11.1185 47.9177 11.4588C48.24 11.7992 48.4827 12.2068 48.6284 12.6523C48.7741 13.0978 48.8191 13.5702 48.7601 14.0352C48.7601 16.3227 47.5238 17.6376 45.391 17.6376H42.8047V10.4774H45.391ZM43.9168 16.625H45.2668C45.6008 16.6449 45.9352 16.5902 46.2454 16.4646C46.5557 16.3391 46.834 16.1459 47.0602 15.8993C47.2864 15.6526 47.4547 15.3586 47.553 15.0386C47.6512 14.7187 47.6769 14.3809 47.6281 14.0498C47.6733 13.72 47.6451 13.3842 47.5453 13.0666C47.4456 12.749 47.2768 12.4574 47.0512 12.2127C46.8255 11.968 46.5485 11.7762 46.24 11.6512C45.9315 11.5261 45.5991 11.4708 45.2668 11.4892H43.9168V16.625Z" fill="white"/>
<path d="M50.016 14.9331C49.982 14.578 50.0227 14.2197 50.1353 13.8812C50.2479 13.5427 50.43 13.2315 50.6699 12.9676C50.9099 12.7036 51.2023 12.4927 51.5285 12.3483C51.8548 12.204 52.2075 12.1294 52.5643 12.1294C52.921 12.1294 53.2738 12.204 53.6 12.3483C53.9262 12.4927 54.2187 12.7036 54.4586 12.9676C54.6985 13.2315 54.8806 13.5427 54.9932 13.8812C55.1059 14.2197 55.1465 14.578 55.1125 14.9331C55.1471 15.2886 55.107 15.6473 54.9947 15.9864C54.8824 16.3254 54.7004 16.6372 54.4604 16.9017C54.2204 17.1662 53.9277 17.3775 53.6012 17.5222C53.2746 17.6668 52.9214 17.7415 52.5643 17.7415C52.2071 17.7415 51.8539 17.6668 51.5274 17.5222C51.2008 17.3775 50.9081 17.1662 50.6681 16.9017C50.4282 16.6372 50.2462 16.3254 50.1338 15.9864C50.0215 15.6473 49.9814 15.2886 50.016 14.9331ZM54.0156 14.9331C54.0156 13.7618 53.4894 13.0768 52.566 13.0768C51.6391 13.0768 51.1176 13.7618 51.1176 14.9331C51.1176 16.1138 51.6391 16.7935 52.566 16.7935C53.4895 16.7934 54.0156 16.1091 54.0156 14.9331Z" fill="white"/>
<path d="M61.8875 17.6374H60.7812L59.6644 13.6577H59.5801L58.4679 17.6374H57.3722L55.8828 12.2339H56.9644L57.9324 16.3571H58.0121L59.123 12.2339H60.1461L61.257 16.3571H61.3414L62.3047 12.2339H63.3711L61.8875 17.6374Z" fill="white"/>
<path d="M64.6251 12.2341H65.6516V13.0925H65.7313C65.8665 12.7842 66.0945 12.5257 66.3835 12.3532C66.6726 12.1806 67.0083 12.1025 67.3438 12.1298C67.6067 12.11 67.8707 12.1497 68.1162 12.2458C68.3617 12.3419 68.5825 12.492 68.7621 12.685C68.9417 12.878 69.0756 13.109 69.1539 13.3608C69.2321 13.6126 69.2527 13.8787 69.2141 14.1395V17.6375H68.1477V14.4073C68.1477 13.539 67.7704 13.1071 66.9817 13.1071C66.8032 13.0988 66.625 13.1292 66.4593 13.1962C66.2936 13.2632 66.1444 13.3652 66.0219 13.4953C65.8993 13.6253 65.8063 13.7804 65.7493 13.9497C65.6923 14.1191 65.6725 14.2988 65.6914 14.4765V17.6376H64.625L64.6251 12.2341Z" fill="white"/>
<path d="M70.9121 10.1245H71.9785V17.6374H70.9121V10.1245Z" fill="white"/>
<path d="M73.4612 14.9332C73.4273 14.5781 73.4679 14.2198 73.5806 13.8813C73.6932 13.5428 73.8754 13.2316 74.1153 12.9676C74.3553 12.7036 74.6477 12.4927 74.974 12.3483C75.3002 12.204 75.653 12.1294 76.0098 12.1294C76.3665 12.1294 76.7193 12.204 77.0456 12.3483C77.3718 12.4927 77.6643 12.7036 77.9042 12.9676C78.1442 13.2316 78.3263 13.5428 78.439 13.8813C78.5516 14.2198 78.5922 14.5781 78.5583 14.9332C78.5929 15.2887 78.5527 15.6475 78.4404 15.9865C78.328 16.3255 78.146 16.6373 77.906 16.9018C77.6659 17.1663 77.3733 17.3776 77.0467 17.5223C76.7201 17.6669 76.3669 17.7416 76.0098 17.7416C75.6526 17.7416 75.2994 17.6669 74.9728 17.5223C74.6463 17.3776 74.3536 17.1663 74.1136 16.9018C73.8736 16.6373 73.6915 16.3255 73.5792 15.9865C73.4668 15.6475 73.4267 15.2887 73.4612 14.9332ZM77.4608 14.9332C77.4608 13.7619 76.9347 13.077 76.0112 13.077C75.0843 13.077 74.5628 13.7619 74.5628 14.9332C74.5628 16.1139 75.0843 16.7936 76.0112 16.7936C76.9347 16.7935 77.4608 16.1092 77.4608 14.9332Z" fill="white"/>
<path d="M79.6816 16.1091C79.6816 15.1365 80.4059 14.5757 81.6914 14.496L83.1551 14.4117V13.9453C83.1551 13.3745 82.7777 13.0523 82.0488 13.0523C81.4535 13.0523 81.041 13.2708 80.9226 13.6529H79.8902C79.9992 12.7247 80.8723 12.1294 82.098 12.1294C83.4527 12.1294 84.2168 12.8038 84.2168 13.9453V17.6372H83.1902V16.8779H83.1059C82.9346 17.1503 82.6941 17.3723 82.409 17.5214C82.1238 17.6704 81.8042 17.7411 81.4828 17.7263C81.256 17.7499 81.0267 17.7257 80.8098 17.6552C80.5929 17.5848 80.3931 17.4697 80.2234 17.3173C80.0537 17.165 79.9178 16.9787 79.8245 16.7706C79.7312 16.5625 79.6825 16.3372 79.6816 16.1091ZM83.1551 15.6474V15.1956L81.8355 15.28C81.0914 15.3298 80.7539 15.5829 80.7539 16.0593C80.7539 16.5456 81.1758 16.8286 81.7559 16.8286C81.9259 16.8458 82.0976 16.8287 82.2608 16.7782C82.424 16.7277 82.5754 16.6448 82.7059 16.5346C82.8364 16.4244 82.9435 16.2891 83.0206 16.1367C83.0978 15.9842 83.1435 15.8178 83.1551 15.6474Z" fill="white"/>
<path d="M85.6172 14.9333C85.6172 13.2259 86.4949 12.1443 87.8602 12.1443C88.1979 12.1287 88.533 12.2096 88.8265 12.3775C89.1199 12.5453 89.3595 12.7933 89.5172 13.0923H89.5969V10.1245H90.6633V17.6374H89.6414V16.7837H89.5571C89.3871 17.0807 89.1392 17.3255 88.8401 17.4917C88.541 17.6579 88.2021 17.7391 87.8602 17.7264C86.4856 17.7265 85.6172 16.6448 85.6172 14.9333ZM86.7188 14.9333C86.7188 16.0794 87.259 16.7691 88.1626 16.7691C89.0614 16.7691 89.6168 16.0695 89.6168 14.938C89.6168 13.8118 89.0555 13.1023 88.1626 13.1023C87.2649 13.1023 86.7188 13.7966 86.7188 14.9333Z" fill="white"/>
<path d="M95.0765 14.9331C95.0425 14.578 95.0831 14.2197 95.1958 13.8812C95.3084 13.5427 95.4905 13.2315 95.7304 12.9676C95.9703 12.7036 96.2628 12.4927 96.589 12.3483C96.9152 12.204 97.268 12.1294 97.6247 12.1294C97.9815 12.1294 98.3342 12.204 98.6605 12.3483C98.9867 12.4927 99.2791 12.7036 99.5191 12.9676C99.759 13.2315 99.9411 13.5427 100.054 13.8812C100.167 14.2197 100.207 14.578 100.173 14.9331C100.208 15.2886 100.168 15.6473 100.056 15.9864C99.9428 16.3254 99.7608 16.6372 99.5208 16.9017C99.2808 17.1662 98.9882 17.3775 98.6616 17.5222C98.3351 17.6668 97.9819 17.7415 97.6247 17.7415C97.2676 17.7415 96.9144 17.6668 96.5878 17.5222C96.2613 17.3775 95.9686 17.1662 95.7286 16.9017C95.4886 16.6372 95.3066 16.3254 95.1943 15.9864C95.082 15.6473 95.0419 15.2886 95.0765 14.9331ZM99.0761 14.9331C99.0761 13.7618 98.5499 13.0768 97.6265 13.0768C96.6995 13.0768 96.1781 13.7618 96.1781 14.9331C96.1781 16.1138 96.6996 16.7935 97.6265 16.7935C98.5499 16.7934 99.0761 16.1091 99.0761 14.9331Z" fill="white"/>
<path d="M101.604 12.2341H102.631V13.0925H102.711C102.846 12.7842 103.074 12.5257 103.363 12.3532C103.652 12.1806 103.987 12.1025 104.323 12.1298C104.586 12.11 104.85 12.1497 105.095 12.2458C105.341 12.3419 105.562 12.492 105.741 12.685C105.921 12.878 106.055 13.109 106.133 13.3608C106.211 13.6126 106.232 13.8787 106.193 14.1395V17.6375H105.127V14.4073C105.127 13.539 104.75 13.1071 103.961 13.1071C103.782 13.0988 103.604 13.1292 103.439 13.1962C103.273 13.2632 103.124 13.3652 103.001 13.4953C102.879 13.6253 102.786 13.7804 102.729 13.9497C102.672 14.1191 102.652 14.2988 102.671 14.4765V17.6376H101.604V12.2341Z" fill="white"/>
<path d="M112.218 10.8887V12.2586H113.389V13.1568H112.218V15.9354C112.218 16.5014 112.451 16.7492 112.982 16.7492C113.118 16.7488 113.254 16.7406 113.389 16.7246V17.6129C113.197 17.6471 113.003 17.6654 112.809 17.6674C111.623 17.6674 111.151 17.2502 111.151 16.2084V13.1568H110.293V12.2585H111.151V10.8887H112.218Z" fill="white"/>
<path d="M114.846 10.1245H115.903V13.1023H115.988C116.13 12.7911 116.364 12.5312 116.659 12.3579C116.954 12.1847 117.295 12.1066 117.635 12.1343C117.897 12.1201 118.158 12.1637 118.401 12.2622C118.644 12.3606 118.862 12.5114 119.04 12.7038C119.217 12.8962 119.351 13.1255 119.429 13.3753C119.508 13.625 119.531 13.8891 119.496 14.1487V17.6374H118.429V14.4118C118.429 13.5487 118.027 13.1116 117.273 13.1116C117.09 13.0966 116.906 13.1218 116.733 13.1854C116.561 13.2491 116.404 13.3497 116.275 13.4802C116.145 13.6107 116.046 13.7679 115.983 13.9409C115.921 14.1138 115.897 14.2984 115.913 14.4815V17.6374H114.847L114.846 10.1245Z" fill="white"/>
<path d="M125.714 16.1783C125.57 16.6722 125.256 17.0993 124.828 17.3851C124.4 17.6709 123.885 17.7971 123.373 17.7416C123.017 17.751 122.663 17.6828 122.336 17.5418C122.009 17.4007 121.717 17.1902 121.479 16.9249C121.242 16.6595 121.065 16.3456 120.961 16.005C120.857 15.6645 120.828 15.3053 120.877 14.9525C120.83 14.5987 120.859 14.2388 120.962 13.8971C121.066 13.5555 121.242 13.2402 121.478 12.9725C121.715 12.7048 122.006 12.491 122.332 12.3456C122.658 12.2001 123.011 12.1264 123.368 12.1295C124.872 12.1295 125.779 13.1567 125.779 14.8535V15.2256H121.963V15.2854C121.947 15.4836 121.971 15.6832 122.036 15.8713C122.101 16.0594 122.205 16.2319 122.34 16.3776C122.476 16.5234 122.64 16.6392 122.823 16.7177C123.006 16.7962 123.203 16.8356 123.402 16.8334C123.657 16.864 123.916 16.818 124.145 16.7014C124.374 16.5847 124.563 16.4027 124.688 16.1783H125.714ZM121.963 14.4369H124.693C124.706 14.2556 124.681 14.0734 124.62 13.9021C124.559 13.7309 124.463 13.5743 124.337 13.4425C124.212 13.3106 124.061 13.2065 123.893 13.1367C123.725 13.0668 123.544 13.0329 123.362 13.0371C123.178 13.0348 122.995 13.0694 122.824 13.139C122.653 13.2085 122.498 13.3115 122.368 13.442C122.237 13.5724 122.134 13.7277 122.065 13.8985C121.995 14.0694 121.961 14.2525 121.963 14.4369Z" fill="white"/>
<path d="M154 0.5H8C3.85786 0.5 0.5 3.85786 0.5 8V40C0.5 44.1421 3.85786 47.5 8 47.5H154C158.142 47.5 161.5 44.1421 161.5 40V8C161.5 3.85786 158.142 0.5 154 0.5Z" stroke="#334155"/>
</g>
<defs>
<clipPath id="clip0_52_30">
<rect width="162" height="48" fill="white"/>
</clipPath>
</defs>
</svg>
