<svg width="38" height="38" viewBox="0 0 38 38" fill="none" xmlns="http://www.w3.org/2000/svg">
<circle cx="19.2211" cy="18.7406" r="18.7406" fill="white"/>
<path fill-rule="evenodd" clip-rule="evenodd" d="M15.9838 8.80183C16.983 8.75583 17.3016 8.74561 19.8469 8.74561C22.3922 8.74561 22.7108 8.75668 23.7092 8.80183C24.7075 8.84698 25.389 9.00627 25.9853 9.23712C26.6097 9.47308 27.1762 9.84193 27.6447 10.319C28.1217 10.7866 28.4897 11.3523 28.7248 11.9775C28.9565 12.5738 29.115 13.2553 29.161 14.2519C29.207 15.2529 29.2172 15.5715 29.2172 18.1159C29.2172 20.6612 29.2061 20.9798 29.161 21.979C29.1158 22.9757 28.9565 23.6572 28.7248 24.2535C28.4897 24.8788 28.1211 25.4454 27.6447 25.9137C27.1762 26.3908 26.6097 26.7588 25.9853 26.9939C25.389 27.2256 24.7075 27.384 23.7109 27.43C22.7108 27.476 22.3922 27.4862 19.8469 27.4862C17.3016 27.4862 16.983 27.4752 15.9838 27.43C14.9871 27.3849 14.3056 27.2256 13.7093 26.9939C13.084 26.7587 12.5174 26.3901 12.0491 25.9137C11.5724 25.4458 11.2035 24.8795 10.9681 24.2543C10.7372 23.658 10.5788 22.9766 10.5328 21.9799C10.4868 20.979 10.4766 20.6604 10.4766 18.1159C10.4766 15.5706 10.4876 15.252 10.5328 14.2536C10.5779 13.2553 10.7372 12.5738 10.9681 11.9775C11.2038 11.3523 11.573 10.786 12.0499 10.3181C12.5176 9.84151 13.0836 9.47261 13.7085 9.23712C14.3048 9.00627 14.9862 8.84783 15.9829 8.80183H15.9838ZM23.6333 10.4885C22.6452 10.4433 22.3488 10.434 19.8469 10.434C17.345 10.434 17.0486 10.4433 16.0604 10.4885C15.1464 10.5302 14.6506 10.6827 14.3201 10.8113C13.8831 10.9817 13.5705 11.1836 13.2425 11.5116C12.9316 11.814 12.6924 12.1822 12.5423 12.5891C12.4137 12.9197 12.2612 13.4154 12.2194 14.3295C12.1743 15.3176 12.1649 15.614 12.1649 18.1159C12.1649 20.6178 12.1743 20.9142 12.2194 21.9024C12.2612 22.8164 12.4137 23.3122 12.5423 23.6427C12.6922 24.049 12.9316 24.4179 13.2425 24.7203C13.5449 25.0312 13.9138 25.2706 14.3201 25.4205C14.6506 25.5491 15.1464 25.7016 16.0604 25.7434C17.0486 25.7885 17.3442 25.7979 19.8469 25.7979C22.3496 25.7979 22.6452 25.7885 23.6333 25.7434C24.5474 25.7016 25.0431 25.5491 25.3737 25.4205C25.8107 25.2501 26.1233 25.0483 26.4512 24.7203C26.7622 24.4179 27.0015 24.049 27.1515 23.6427C27.2801 23.3122 27.4326 22.8164 27.4743 21.9024C27.5195 20.9142 27.5288 20.6178 27.5288 18.1159C27.5288 15.614 27.5195 15.3176 27.4743 14.3295C27.4326 13.4154 27.2801 12.9197 27.1515 12.5891C26.9811 12.1521 26.7792 11.8395 26.4512 11.5116C26.1488 11.2007 25.7806 10.9614 25.3737 10.8113C25.0431 10.6827 24.5474 10.5302 23.6333 10.4885V10.4885ZM18.65 21.0045C19.3184 21.2828 20.0627 21.3203 20.7557 21.1108C21.4488 20.9012 22.0475 20.4576 22.4498 19.8556C22.852 19.2536 23.0328 18.5307 22.9613 17.8102C22.8897 17.0897 22.5702 16.4165 22.0574 15.9054C21.7305 15.5787 21.3352 15.3285 20.9 15.1729C20.4649 15.0173 20.0006 14.9601 19.5406 15.0055C19.0807 15.0509 18.6365 15.1976 18.2401 15.4353C17.8437 15.6729 17.5049 15.9955 17.2482 16.3797C16.9914 16.764 16.823 17.2004 16.7551 17.6576C16.6872 18.1148 16.7216 18.5813 16.8557 19.0236C16.9897 19.4659 17.2202 19.8729 17.5305 20.2155C17.8407 20.558 18.2231 20.8275 18.65 21.0045ZM16.4412 14.7102C16.8884 14.263 17.4194 13.9082 18.0037 13.6662C18.5881 13.4241 19.2144 13.2996 19.8469 13.2996C20.4794 13.2996 21.1057 13.4241 21.69 13.6662C22.2744 13.9082 22.8053 14.263 23.2526 14.7102C23.6998 15.1575 24.0546 15.6884 24.2966 16.2728C24.5387 16.8571 24.6632 17.4834 24.6632 18.1159C24.6632 18.7484 24.5387 19.3747 24.2966 19.9591C24.0546 20.5434 23.6998 21.0744 23.2526 21.5216C22.3493 22.4248 21.1243 22.9323 19.8469 22.9323C18.5695 22.9323 17.3444 22.4248 16.4412 21.5216C15.538 20.6184 15.0305 19.3933 15.0305 18.1159C15.0305 16.8385 15.538 15.6135 16.4412 14.7102V14.7102ZM25.7314 14.0168C25.8423 13.9123 25.931 13.7866 25.9924 13.6471C26.0537 13.5077 26.0865 13.3573 26.0887 13.205C26.0909 13.0526 26.0626 12.9014 26.0053 12.7602C25.948 12.619 25.863 12.4908 25.7553 12.383C25.6475 12.2753 25.5193 12.1903 25.3781 12.133C25.2369 12.0757 25.0857 12.0473 24.9333 12.0496C24.781 12.0518 24.6306 12.0846 24.4912 12.1459C24.3517 12.2073 24.226 12.296 24.1214 12.4068C23.9181 12.6224 23.8068 12.9087 23.8111 13.205C23.8154 13.5012 23.9351 13.7842 24.1446 13.9937C24.3541 14.2032 24.637 14.3228 24.9333 14.3272C25.2296 14.3315 25.5159 14.2202 25.7314 14.0168V14.0168Z" fill="black"/>
</svg>
