<svg width="162" height="48" viewBox="0 0 162 48" fill="none" xmlns="http://www.w3.org/2000/svg">
<g clip-path="url(#clip0_52_57)">
<path d="M154 0.5H8C3.85786 0.5 0.5 3.85786 0.5 8V40C0.5 44.1421 3.85786 47.5 8 47.5H154C158.142 47.5 161.5 44.1421 161.5 40V8C161.5 3.85786 158.142 0.5 154 0.5Z" fill="#121214"/>
<path d="M56.9039 12.2882C56.9236 12.7283 56.854 13.1678 56.6993 13.5802C56.5446 13.9927 56.3081 14.3696 56.0039 14.6882C55.663 15.0402 55.2516 15.3162 54.7966 15.4981C54.3417 15.6801 53.8535 15.764 53.3639 15.7442C52.8715 15.7552 52.382 15.665 51.9259 15.4792C51.4697 15.2935 51.0565 15.0161 50.7119 14.6642C50.0126 13.949 49.6211 12.9885 49.6211 11.9882C49.6211 10.988 50.0126 10.0274 50.7119 9.31225C51.2465 8.78987 51.9235 8.43713 52.658 8.29835C53.3924 8.15958 54.1515 8.24095 54.8399 8.53225C55.2726 8.71012 55.6586 8.98523 55.9679 9.33625L55.3319 9.97225C55.0936 9.68517 54.7916 9.45761 54.45 9.30763C54.1084 9.15765 53.7365 9.08938 53.3639 9.10825C52.8935 9.1115 52.4311 9.22992 52.017 9.45314C51.603 9.67637 51.2499 9.99762 50.9887 10.3888C50.7275 10.7799 50.5661 11.2292 50.5185 11.6971C50.471 12.1651 50.5388 12.6376 50.7161 13.0733C50.8933 13.509 51.1746 13.8947 51.5353 14.1966C51.896 14.4985 52.3251 14.7075 52.7853 14.8053C53.2454 14.903 53.7224 14.8866 54.1747 14.7574C54.627 14.6282 55.0408 14.3902 55.3799 14.0642C55.7464 13.6623 55.959 13.1437 55.9799 12.6002H53.3639V11.7362H56.8559C56.8832 11.919 56.8992 12.1034 56.9039 12.2882Z" fill="white" stroke="white" stroke-width="0.2" stroke-miterlimit="10"/>
<path d="M62.4006 9.28839H59.1606V11.5683H62.1126V12.4323H59.1606V14.7123H62.4006V15.6003H58.2246V8.40039H62.4006V9.28839Z" fill="white" stroke="white" stroke-width="0.2" stroke-miterlimit="10"/>
<path d="M66.3365 15.6003H65.4125V9.28839H63.3965V8.40039H68.4005V9.28839H66.3365V15.6003Z" fill="white" stroke="white" stroke-width="0.2" stroke-miterlimit="10"/>
<path d="M71.9277 15.6003V8.40039H72.8517V15.6003H71.9277Z" fill="white" stroke="white" stroke-width="0.2" stroke-miterlimit="10"/>
<path d="M76.9556 15.6003H76.0316V9.28839H74.0156V8.40039H78.9596V9.28839H76.9556V15.6003Z" fill="white" stroke="white" stroke-width="0.2" stroke-miterlimit="10"/>
<path d="M88.3322 14.6639C87.9856 15.0107 87.5741 15.2859 87.1211 15.4737C86.6681 15.6614 86.1825 15.758 85.6922 15.758C85.2018 15.758 84.7163 15.6614 84.2633 15.4737C83.8103 15.2859 83.3988 15.0107 83.0522 14.6639C82.3738 13.9427 81.9961 12.99 81.9961 11.9999C81.9961 11.0098 82.3738 10.057 83.0522 9.33588C83.3913 8.97924 83.8015 8.69776 84.2563 8.50965C84.711 8.32155 85.2002 8.231 85.6922 8.24388C86.1835 8.23611 86.6711 8.32898 87.1252 8.51678C87.5792 8.70459 87.99 8.98334 88.3322 9.33588C88.6772 9.68687 88.9485 10.1034 89.1298 10.561C89.3112 11.0185 89.3991 11.5078 89.3882 11.9999C89.4039 12.4926 89.3183 12.9832 89.1367 13.4415C88.955 13.8997 88.6812 14.3158 88.3322 14.6639ZM83.7362 14.0639C83.9918 14.3229 84.2964 14.5286 84.6321 14.669C84.9679 14.8094 85.3283 14.8817 85.6922 14.8817C86.0561 14.8817 86.4165 14.8094 86.7522 14.669C87.088 14.5286 87.3926 14.3229 87.6482 14.0639C88.166 13.5012 88.4534 12.7645 88.4534 11.9999C88.4534 11.2352 88.166 10.4985 87.6482 9.93588C87.3926 9.67683 87.088 9.47113 86.7522 9.33074C86.4165 9.19035 86.0561 9.11805 85.6922 9.11805C85.3283 9.11805 84.9679 9.19035 84.6321 9.33074C84.2964 9.47113 83.9918 9.67683 83.7362 9.93588C83.2184 10.4985 82.931 11.2352 82.931 11.9999C82.931 12.7645 83.2184 13.5012 83.7362 14.0639Z" fill="white" stroke="white" stroke-width="0.2" stroke-miterlimit="10"/>
<path d="M90.6953 15.6003V8.40039H91.8113L95.3153 14.0043V12.6123V8.40039H96.2393V15.6003H95.2793L91.6193 9.73239V11.1123V15.6003H90.6953Z" fill="white" stroke="white" stroke-width="0.2" stroke-miterlimit="10"/>
<path d="M81.7674 26.1001C80.7563 26.1024 79.7687 26.4046 78.9293 26.9683C78.09 27.5319 77.4366 28.3319 77.0519 29.2669C76.6672 30.2019 76.5684 31.2299 76.768 32.2211C76.9675 33.2123 77.4565 34.122 78.1731 34.8352C78.8897 35.5485 79.8018 36.0332 80.7939 36.2281C81.7859 36.4231 82.8136 36.3194 83.7467 35.9303C84.6799 35.5412 85.4768 34.8841 86.0365 34.0421C86.5963 33.2002 86.8937 32.2111 86.8914 31.2001C86.9012 30.5256 86.7751 29.856 86.5208 29.2313C86.2664 28.6065 85.889 28.0393 85.4109 27.5635C84.9328 27.0876 84.3638 26.7128 83.7379 26.4614C83.1119 26.21 82.4418 26.0871 81.7674 26.1001ZM81.7674 34.2961C81.1477 34.3394 80.5293 34.1953 79.9925 33.8825C79.4558 33.5697 79.0256 33.1027 78.7578 32.5422C78.49 31.9816 78.397 31.3535 78.491 30.7394C78.5849 30.1254 78.8614 29.5538 79.2845 29.0989C79.7076 28.6441 80.2578 28.327 80.8635 28.189C81.4692 28.051 82.1024 28.0983 82.6808 28.325C83.2592 28.5516 83.7561 28.947 84.1068 29.4597C84.4575 29.9724 84.6459 30.5788 84.6474 31.2001C84.6667 31.5937 84.607 31.9872 84.4718 32.3574C84.3367 32.7275 84.1288 33.0669 83.8603 33.3555C83.5919 33.644 83.2684 33.8759 82.909 34.0374C82.5495 34.199 82.1614 34.2869 81.7674 34.2961ZM70.5834 26.1001C69.5723 26.1024 68.5847 26.4046 67.7453 26.9683C66.906 27.5319 66.2526 28.3319 65.8679 29.2669C65.4832 30.2019 65.3844 31.2299 65.584 32.2211C65.7835 33.2123 66.2725 34.122 66.9891 34.8352C67.7057 35.5485 68.6178 36.0332 69.6099 36.2281C70.6019 36.4231 71.6296 36.3194 72.5627 35.9303C73.4959 35.5412 74.2928 34.8841 74.8525 34.0421C75.4123 33.2002 75.7097 32.2111 75.7074 31.2001C75.7171 30.5256 75.5911 29.856 75.3368 29.2313C75.0824 28.6065 74.705 28.0393 74.2269 27.5635C73.7488 27.0876 73.1798 26.7128 72.5539 26.4614C71.9279 26.21 71.2578 26.0871 70.5834 26.1001ZM70.5834 34.2961C69.9637 34.3394 69.3453 34.1953 68.8085 33.8825C68.2718 33.5697 67.8416 33.1027 67.5738 32.5422C67.306 31.9816 67.213 31.3535 67.307 30.7394C67.4009 30.1254 67.6774 29.5538 68.1005 29.0989C68.5236 28.6441 69.0738 28.327 69.6795 28.189C70.2852 28.051 70.9184 28.0983 71.4968 28.325C72.0752 28.5516 72.5721 28.947 72.9228 29.4597C73.2735 29.9724 73.4619 30.5788 73.4634 31.2001C73.4827 31.5937 73.423 31.9872 73.2878 32.3574C73.1527 32.7275 72.9448 33.0669 72.6763 33.3555C72.4079 33.644 72.0844 33.8759 71.725 34.0374C71.3655 34.199 70.9774 34.2869 70.5834 34.2961ZM57.2874 27.6721V29.8321H62.4714C62.3901 30.8494 61.9672 31.8094 61.2714 32.5561C60.7514 33.0859 60.1259 33.5006 59.4355 33.7735C58.7451 34.0463 58.0051 34.1712 57.2634 34.1401C55.7357 34.1401 54.2706 33.5332 53.1904 32.453C52.1102 31.3728 51.5034 29.9077 51.5034 28.3801C51.5034 26.8524 52.1102 25.3873 53.1904 24.3071C54.2706 23.2269 55.7357 22.6201 57.2634 22.6201C58.7279 22.5983 60.142 23.1544 61.1994 24.1681L62.7234 22.6441C62.0082 21.9367 61.159 21.3791 60.2255 21.0041C59.2921 20.6291 58.2932 20.4441 57.2874 20.4601C56.2206 20.4185 55.1564 20.5928 54.1585 20.9724C53.1607 21.352 52.2497 21.9292 51.4803 22.6693C50.7108 23.4094 50.0987 24.2972 49.6806 25.2795C49.2624 26.2618 49.0469 27.3184 49.0469 28.3861C49.0469 29.4537 49.2624 30.5103 49.6806 31.4926C50.0987 32.4749 50.7108 33.3628 51.4803 34.1028C52.2497 34.8429 53.1607 35.4201 54.1585 35.7997C55.1564 36.1793 56.2206 36.3536 57.2874 36.3121C58.3139 36.3531 59.3374 36.1765 60.2909 35.7938C61.2443 35.4112 62.106 34.8313 62.8194 34.0921C64.0795 32.7077 64.751 30.8871 64.6914 29.0161C64.6957 28.5657 64.6595 28.1159 64.5834 27.6721H57.2874ZM111.659 29.3521C111.346 28.4313 110.761 27.6274 109.981 27.0467C109.201 26.466 108.263 26.1358 107.291 26.1001C106.635 26.0988 105.985 26.2321 105.382 26.4919C104.779 26.7517 104.236 27.1323 103.786 27.6103C103.336 28.0883 102.989 28.6535 102.767 29.2709C102.544 29.8884 102.45 30.5449 102.491 31.2001C102.481 32.2955 102.825 33.3648 103.473 34.2484C104.12 35.1319 105.036 35.7823 106.084 36.1022C107.132 36.4222 108.255 36.3947 109.286 36.0237C110.316 35.6527 111.2 34.9583 111.803 34.0441L110.063 32.8441C109.804 33.2764 109.436 33.6334 108.996 33.8797C108.556 34.126 108.059 34.253 107.555 34.2481C107.035 34.2695 106.521 34.1332 106.079 33.8569C105.638 33.5806 105.291 33.1773 105.083 32.7001L111.911 29.8801L111.659 29.3521ZM104.699 31.0561C104.675 30.6833 104.725 30.3095 104.847 29.9564C104.969 29.6033 105.16 29.2781 105.409 28.9999C105.659 28.7216 105.961 28.4959 106.298 28.3359C106.636 28.1759 107.002 28.0848 107.375 28.0681C107.762 28.0445 108.147 28.1355 108.482 28.3297C108.817 28.524 109.087 28.8128 109.259 29.1601L104.699 31.0561ZM99.1554 36.0001H101.399V21.0001H99.1554V36.0001ZM95.4834 27.2401H95.3994C95.0642 26.8583 94.6504 26.5534 94.1865 26.3463C93.7226 26.1392 93.2194 26.0347 92.7114 26.0401C91.4 26.1037 90.1634 26.6694 89.2577 27.62C88.3521 28.5705 87.847 29.8331 87.847 31.1461C87.847 32.459 88.3521 33.7216 89.2577 34.6722C90.1634 35.6228 91.4 36.1885 92.7114 36.2521C93.2201 36.2623 93.7249 36.16 94.1895 35.9526C94.6542 35.7451 95.0673 35.4376 95.3994 35.0521H95.4834V35.7841C95.4834 37.7401 94.4394 38.7841 92.7594 38.7841C92.1982 38.7717 91.6533 38.5929 91.1939 38.2703C90.7345 37.9476 90.3814 37.4958 90.1794 36.9721L88.2354 37.7761C88.5948 38.6788 89.2197 39.4511 90.0275 39.9911C90.8352 40.531 91.7878 40.8131 92.7594 40.8001C95.3874 40.8001 97.5594 39.2521 97.5594 35.4841V26.4001H95.4834V27.2401ZM92.9034 34.2961C92.1171 34.247 91.3792 33.9002 90.8397 33.3261C90.3003 32.752 90 31.9938 90 31.2061C90 30.4183 90.3003 29.6602 90.8397 29.0861C91.3792 28.512 92.1171 28.1651 92.9034 28.1161C93.2877 28.1326 93.6647 28.2264 94.012 28.3916C94.3593 28.5569 94.6699 28.7903 94.9251 29.0781C95.1804 29.3658 95.3752 29.7019 95.4979 30.0665C95.6206 30.431 95.6687 30.8165 95.6394 31.2001C95.6721 31.5849 95.6265 31.9724 95.5052 32.339C95.3839 32.7057 95.1895 33.044 94.9337 33.3334C94.678 33.6228 94.3662 33.8573 94.0172 34.0228C93.6682 34.1883 93.2893 34.2812 92.9034 34.2961ZM122.171 21.0001H116.795V36.0001H119.039V30.3121H122.171C122.811 30.358 123.453 30.2717 124.057 30.0585C124.662 29.8454 125.217 29.5099 125.686 29.073C126.155 28.6362 126.53 28.1073 126.786 27.5195C127.041 26.9316 127.174 26.2972 127.174 25.6561C127.174 25.0149 127.041 24.3805 126.786 23.7927C126.53 23.2048 126.155 22.6759 125.686 22.2391C125.217 21.8022 124.662 21.4668 124.057 21.2536C123.453 21.0404 122.811 20.9541 122.171 21.0001ZM122.171 28.2001H119.039V23.0881H122.219C122.556 23.0881 122.89 23.1545 123.202 23.2835C123.513 23.4126 123.796 23.6017 124.035 23.8402C124.273 24.0787 124.463 24.3618 124.592 24.6733C124.721 24.9849 124.787 25.3188 124.787 25.6561C124.787 25.9933 124.721 26.3272 124.592 26.6388C124.463 26.9504 124.273 27.2334 124.035 27.4719C123.796 27.7104 123.513 27.8995 123.202 28.0286C122.89 28.1576 122.556 28.2241 122.219 28.2241L122.171 28.2001ZM136.019 26.0521C135.202 26.0017 134.388 26.1919 133.678 26.5993C132.967 27.0066 132.392 27.6132 132.023 28.3441L134.003 29.1721C134.203 28.8113 134.503 28.5163 134.868 28.3225C135.232 28.1287 135.644 28.0445 136.055 28.0801C136.34 28.0468 136.629 28.0706 136.904 28.15C137.18 28.2295 137.437 28.3631 137.66 28.5429C137.884 28.7228 138.069 28.9453 138.205 29.1975C138.342 29.4498 138.427 29.7267 138.455 30.0121V30.1561C137.733 29.7768 136.93 29.5791 136.115 29.5801C133.979 29.5801 131.795 30.7801 131.795 32.9641C131.816 33.4283 131.93 33.8835 132.131 34.3027C132.331 34.7219 132.614 35.0966 132.962 35.4044C133.31 35.7122 133.717 35.9469 134.157 36.0946C134.598 36.2423 135.064 36.2999 135.527 36.2641C136.09 36.2952 136.651 36.176 137.153 35.9188C137.655 35.6615 138.08 35.2754 138.383 34.8001H138.455V36.0001H140.615V30.2281C140.615 27.6001 138.623 26.0761 136.067 26.0761L136.019 26.0521ZM135.743 34.2721C135.011 34.2721 133.991 33.9001 133.991 33.0001C133.991 31.8001 135.263 31.3921 136.391 31.3921C137.104 31.3745 137.808 31.5485 138.431 31.8961C138.356 32.5477 138.047 33.15 137.561 33.5913C137.076 34.0326 136.447 34.283 135.791 34.2961L135.743 34.2721ZM148.487 26.4001L145.919 32.9041H145.847L143.183 26.4001H140.783L144.779 35.4961L142.499 40.5481H144.839L150.983 26.4001H148.487ZM128.327 36.0001H130.559V21.0001H128.327V36.0001Z" fill="white"/>
<path d="M12.5281 9.04836C12.1327 9.5159 11.9309 10.1169 11.9641 10.7283V37.2723C11.9233 37.8848 12.126 38.4886 12.5281 38.9523L12.6121 39.0483L27.4801 24.1803V23.8203L12.6121 8.96436L12.5281 9.04836Z" fill="url(#paint0_linear_52_57)"/>
<path d="M32.4005 29.1358L27.4805 24.1798V23.8198L32.4005 18.8638L32.5085 18.9358L38.4005 22.2718C40.0805 23.2198 40.0805 24.7798 38.4005 25.7398L32.5325 29.0758L32.4005 29.1358Z" fill="url(#paint1_linear_52_57)"/>
<path d="M32.5432 29.064L27.4793 24L12.5273 38.952C12.8663 39.2538 13.3004 39.4275 13.7541 39.4428C14.2078 39.4582 14.6525 39.3142 15.0113 39.036L32.5432 29.064Z" fill="url(#paint2_linear_52_57)"/>
<path d="M32.5432 18.9362L15.0113 8.97625C14.6549 8.69415 14.2105 8.54672 13.7561 8.55989C13.3018 8.57306 12.8667 8.74598 12.5273 9.04825L27.4793 24.0002L32.5432 18.9362Z" fill="url(#paint3_linear_52_57)"/>
<path opacity="0.2" d="M32.3993 28.9556L15.0113 38.8556C14.6656 39.1165 14.2443 39.2576 13.8113 39.2576C13.3782 39.2576 12.9569 39.1165 12.6113 38.8556L12.5273 38.9396L12.6113 39.0356C12.9569 39.2965 13.3782 39.4376 13.8113 39.4376C14.2443 39.4376 14.6656 39.2965 15.0113 39.0356L32.5432 29.0636L32.3993 28.9556Z" fill="#181A20"/>
<path opacity="0.12" d="M12.5271 38.7838C12.1417 38.3079 11.9528 37.7026 11.9991 37.0918V37.2718C11.9583 37.8843 12.161 38.4881 12.5631 38.9518L12.6471 38.8678L12.5271 38.7838Z" fill="#181A20"/>
<path opacity="0.12" d="M38.4004 25.56L32.4004 28.956L32.5084 29.064L38.4004 25.728C38.7482 25.5809 39.0499 25.3428 39.2738 25.0387C39.4976 24.7346 39.6353 24.3758 39.6724 24C39.5974 24.3415 39.4432 24.6606 39.2223 24.9315C39.0013 25.2025 38.7198 25.4178 38.4004 25.56Z" fill="#181A20"/>
<path opacity="0.25" d="M15.0128 9.14378L38.4008 22.4398C38.7202 22.5821 39.0017 22.7973 39.2226 23.0683C39.4436 23.3393 39.5978 23.6583 39.6728 23.9998C39.6357 23.624 39.498 23.2652 39.2741 22.9611C39.0503 22.657 38.7486 22.4189 38.4008 22.2718L15.0128 8.97578C13.3448 8.01578 11.9648 8.80778 11.9648 10.7278V10.9078C12.0008 8.98778 13.3448 8.19578 15.0128 9.14378Z" fill="white"/>
<path d="M154 0.5H8C3.85786 0.5 0.5 3.85786 0.5 8V40C0.5 44.1421 3.85786 47.5 8 47.5H154C158.142 47.5 161.5 44.1421 161.5 40V8C161.5 3.85786 158.142 0.5 154 0.5Z" stroke="#334155"/>
</g>
<defs>
<linearGradient id="paint0_linear_52_57" x1="26.1601" y1="10.4523" x2="6.02419" y2="30.5883" gradientUnits="userSpaceOnUse">
<stop stop-color="#00A0FF"/>
<stop offset="0.01" stop-color="#00A1FF"/>
<stop offset="0.26" stop-color="#00BEFF"/>
<stop offset="0.51" stop-color="#00D2FF"/>
<stop offset="0.76" stop-color="#00DFFF"/>
<stop offset="1" stop-color="#00E3FF"/>
</linearGradient>
<linearGradient id="paint1_linear_52_57" x1="40.5965" y1="23.9998" x2="11.5685" y2="23.9998" gradientUnits="userSpaceOnUse">
<stop stop-color="#FFE000"/>
<stop offset="0.41" stop-color="#FFBD00"/>
<stop offset="0.78" stop-color="#FFA500"/>
<stop offset="1" stop-color="#FF9C00"/>
</linearGradient>
<linearGradient id="paint2_linear_52_57" x1="29.7952" y1="26.76" x2="2.4833" y2="54.06" gradientUnits="userSpaceOnUse">
<stop stop-color="#FF3A44"/>
<stop offset="1" stop-color="#C31162"/>
</linearGradient>
<linearGradient id="paint3_linear_52_57" x1="8.75931" y1="0.21626" x2="20.9513" y2="12.4082" gradientUnits="userSpaceOnUse">
<stop stop-color="#32A071"/>
<stop offset="0.07" stop-color="#2DA771"/>
<stop offset="0.48" stop-color="#15CF74"/>
<stop offset="0.8" stop-color="#06E775"/>
<stop offset="1" stop-color="#00F076"/>
</linearGradient>
<clipPath id="clip0_52_57">
<rect width="162" height="48" fill="white"/>
</clipPath>
</defs>
</svg>
