<svg width="38" height="38" viewBox="0 0 38 38" fill="none" xmlns="http://www.w3.org/2000/svg">
<circle cx="18.7406" cy="18.7406" r="18.7406" fill="white"/>
<path d="M32.3807 11.5483C31.4482 11.9309 30.4335 12.2062 29.3882 12.3135C30.4734 11.7002 31.2861 10.7314 31.6738 9.58883C30.6554 10.165 29.5398 10.5691 28.3765 10.783C27.8903 10.2886 27.3022 9.89475 26.6489 9.62596C25.9957 9.35717 25.2912 9.21922 24.5794 9.22072C21.6997 9.22072 19.3836 11.441 19.3836 14.1657C19.3836 14.5483 19.4324 14.9309 19.5116 15.299C15.1996 15.0845 11.3538 13.1251 8.79702 10.1251C8.33115 10.8819 8.08702 11.7437 8.09002 12.6207C8.09002 14.3367 9.00729 15.8497 10.406 16.7396C9.58173 16.7087 8.77673 16.4932 8.0565 16.1106V16.1715C8.0565 18.5744 9.84227 20.5657 12.2223 21.0237C11.7754 21.1341 11.3157 21.1905 10.854 21.1918C10.5157 21.1918 10.1958 21.1599 9.87274 21.1164C10.531 23.0758 12.4478 24.499 14.7303 24.5454C12.9445 25.8758 10.7077 26.6585 8.27896 26.6585C7.84318 26.6585 7.44093 26.644 7.02344 26.5976C9.32726 28.0034 12.0608 28.815 15.0045 28.815C24.5612 28.815 29.7905 21.2845 29.7905 14.7483C29.7905 14.5338 29.7905 14.3193 29.7752 14.1048C30.787 13.4004 31.6738 12.528 32.3807 11.5483Z" fill="#00A3FF"/>
</svg>
